Coordinates
version=1
nRows=19
nColumns=24
inDegrees=yes

Units are S.I. units (second, meters, Newtons, ...)
Angles are in degrees.

endheader
time	pelvis_tilt	pelvis_list	pelvis_rotation	pelvis_tx	pelvis_ty	pelvis_tz	hip_flexion_r	hip_adduction_r	hip_rotation_r	knee_angle_r	ankle_angle_r	subtalar_angle_r	mtp_angle_r	hip_flexion_l	hip_adduction_l	hip_rotation_l	knee_angle_l	ankle_angle_l	subtalar_angle_l	mtp_angle_l	lumbar_extension	lumbar_bending	lumbar_rotation
      6.46000000	     -8.02584354	      4.25617347	      2.98984734	     -1.43818748	     -0.00436892	     -0.28838105	     28.12509110	    -10.51321924	    -10.25920468	    -64.28035787	    -13.42386766	      3.25344665	     34.57480343	     11.65053619	      9.83576405	     18.00145841	    -15.19856535	      2.35297261	    -11.28462623	     -2.12792794	      5.91958795	     -6.35615539	     -0.09600693
      6.46500000	     -7.92521591	      4.08716972	      3.11583275	     -1.43332795	     -0.00401448	     -0.28860672	     28.64954993	    -10.35120695	    -10.36535095	    -63.68812330	    -12.84724466	      3.29849810	     34.65926028	     11.07869484	      9.63408613	     18.19779165	    -14.95256800	      2.57484062	    -11.22383369	     -2.05947971	      5.75203303	     -6.19002412	     -0.40079840
      6.47000000	     -7.84074906	      3.93661104	      3.22197301	     -1.42847002	     -0.00374641	     -0.28880146	     29.18337222	    -10.19456386	    -10.44235884	    -63.04235503	    -12.29019699	      3.31499008	     34.71273120	     10.51900991	      9.44076173	     18.37765803	    -14.69257742	      2.81417350	    -11.15504451	     -1.93987079	      5.60832866	     -6.03927607	     -0.64673109
      6.47500000	     -7.68005075	      3.79659709	      3.37317611	     -1.42363396	     -0.00339401	     -0.28898893	     29.58831383	    -10.05577869	    -10.54290902	    -62.31656690	    -11.69185422	      3.39485690	     34.67916486	      9.88001744	      9.24812190	     18.52215571	    -14.42437426	      3.00135362	    -11.00784266	     -1.74075417	      5.36400543	     -5.91153442	     -1.01012377
      6.48000000	     -7.59913121	      3.66412089	      3.45540318	     -1.41877916	     -0.00321863	     -0.28909182	     30.09209657	     -9.88387389	    -10.56292512	    -61.54767422	    -11.16764556	      3.40711998	     34.63909440	      9.31944071	      9.05283982	     18.66240128	    -14.14292036	      3.22724985	    -10.93993164	     -1.55518474	      5.22729445	     -5.78093840	     -1.22821638
      6.48500000	     -7.40192140	      3.55482578	      3.59732545	     -1.41395909	     -0.00291630	     -0.28921636	     30.41554402	     -9.75555642	    -10.63106880	    -60.70223294	    -10.56093985	      3.48943825	     34.43553074	      8.64231293	      8.87414270	     18.75835617	    -13.86344807	      3.37231583	    -10.77898320	     -1.23387154	      4.94040596	     -5.67961000	     -1.58525942
      6.49000000	     -7.27449256	      3.43094240	      3.70353169	     -1.40910194	     -0.00273284	     -0.28926086	     30.80268944	     -9.58043641	    -10.64496428	    -59.79461080	    -10.00582650	      3.56883037	     34.19144545	      8.03533227	      8.67467074	     18.86535440	    -13.57491021	      3.52291875	    -10.70307187	     -0.92633803	      4.74780064	     -5.56701843	     -1.85610678
      6.49500000	     -7.12141638	      3.33591018	      3.80966697	     -1.40428074	     -0.00261332	     -0.28928709	     31.14850131	     -9.43280198	    -10.64651233	    -58.84992295	     -9.43368395	      3.66038668	     33.84355782	      7.40422490	      8.50442963	     19.00439784	    -13.29633919	      3.68739997	    -10.65460543	     -0.57591103	      4.51814732	     -5.48279049	     -2.12962024
      6.50000000	     -7.09902779	      3.22783834	      3.89291490	     -1.39942466	     -0.00260523	     -0.28926666	     31.61384811	     -9.24926551	    -10.58652596	    -57.81431072	     -9.00955260	      3.72764548	     33.70429927	      6.92079029	      8.32719085	     19.13133800	    -13.03380659	      3.83350075	    -10.63502045	     -0.44467506	      4.44920659	     -5.38585679	     -2.33506475
      6.50500000	     -6.88762068	      3.13462204	      4.04329925	     -1.39464314	     -0.00246940	     -0.28928072	     31.82135893	     -9.11193908	    -10.60702344	    -56.72951711	     -8.43608591	      3.89403994	     33.26490401	      6.24066908	      8.16165986	     19.32372235	    -12.78679734	      3.99215415	    -10.61950380	     -0.22549813	      4.13790188	     -5.30982100	     -2.69053251
      6.51000000	     -6.89597392	      3.03600764	      4.11781738	     -1.38980393	     -0.00257846	     -0.28920639	     32.27100640	     -8.92069921	    -10.49566751	    -55.57278421	     -8.07881570	      3.98754322	     33.10164317	      5.81062651	      8.00131135	     19.46187674	    -12.56949350	      4.15573710	    -10.65674996	     -0.16510745	      4.10354900	     -5.22345383	     -2.88511392
      6.51500000	     -6.67321083	      2.93209127	      4.30392479	     -1.38499634	     -0.00246543	     -0.28924178	     32.38951653	     -8.79324566	    -10.54794481	    -54.35863926	     -7.52828199	      4.23754275	     32.51827653	      5.11912865	      7.83098814	     19.75077828	    -12.33994422	      4.31714418	    -10.73149264	     -0.14252826	      3.78232808	     -5.13894845	     -3.26539128
      6.52000000	     -6.57218734	      2.82566755	      4.43651939	     -1.38017261	     -0.00250399	     -0.28917850	     32.63586228	     -8.62446570	    -10.51012789	    -53.10086288	     -7.04046258	      4.49422753	     31.83609713	      4.56704993	      7.66203834	     20.03015555	    -12.13035184	      4.47966948	    -10.87329082	     -0.26491205	      3.60922084	     -5.05144916	     -3.54202804
      6.52500000	     -6.62674330	      2.72891709	      4.51758018	     -1.37541363	     -0.00274409	     -0.28903183	     33.05374008	     -8.42790166	    -10.34128990	    -51.77291090	     -6.80507207	      4.66966296	     31.62944407	      4.22382900	      7.51367828	     20.17927783	    -11.97896238	      4.65351457	    -10.94732253	     -0.29802857	      3.60381248	     -4.97770079	     -3.74333539
      6.53000000	     -6.44334272	      2.61344455	      4.73145771	     -1.37063877	     -0.00272254	     -0.28904880	     33.11856791	     -8.30264168	    -10.39002061	    -50.38925602	     -6.34857602	      4.98362350	     30.86248825	      3.59736813	      7.34135242	     20.60149680	    -11.81261136	      4.85390547	    -11.11201385	     -0.62361977	      3.32066956	     -4.88613149	     -4.14420883
      6.53500000	     -6.52949423	      2.50313141	      4.80601130	     -1.36589298	     -0.00303587	     -0.28889028	     33.50740019	     -8.09470984	    -10.19452383	    -48.95121345	     -6.17670119	      5.21624471	     30.60647894	      3.30677584	      7.18516907	     20.75278462	    -11.69620110	      5.03466552	    -11.20988739	     -0.70531357	      3.34880540	     -4.79564728	     -4.31267837
      6.54000000	     -6.36262678	      2.37295381	      5.04225907	     -1.36114637	     -0.00306276	     -0.28891419	     33.52534369	     -7.97109455	    -10.25199621	    -47.47832390	     -5.74080975	      5.56485229	     29.61748752	      2.71240436	      6.99975783	     21.24007348	    -11.56182364	      5.28254680	    -11.38817827	     -1.23317382	      3.07820927	     -4.68540847	     -4.73498646
      6.54500000	     -6.48635605	      2.26371265	      5.09883738	     -1.35642038	     -0.00345635	     -0.28870935	     33.90011762	     -7.76497954	    -10.02004861	    -45.95351700	     -5.62703925	      5.84781983	     29.35705366	      2.47894645	      6.84602015	     21.36838183	    -11.47279236	      5.46570369	    -11.46945892	     -1.32120527	      3.14371388	     -4.59728109	     -4.87524647
      6.55000000	     -6.37563675	      2.10794294	      5.32764670	     -1.35169318	     -0.00356469	     -0.28869942	     33.92107822	     -7.61893943	    -10.05834013	    -44.39122215	     -5.25940078	      6.19158338	     28.32619041	      1.97239819	      6.63118940	     21.80985894	    -11.37860440	      5.76357161	    -11.56166604	     -1.85992727	      2.93172372	     -4.46493927	     -5.27604856
